<svg width="24" height="24" viewBox="0 0 24 24" xmlns="http://www.w3.org/2000/svg">
    <path
        d="M4 17C3.45 17 2.97917 16.8042 2.5875 16.4125C2.19583 16.0208 2 15.55 2 15C2 14.45 2.19583 13.9792 2.5875 13.5875C2.97917 13.1958 3.45 13 4 13C4.19167 13 4.36875 13.0229 4.53125 13.0688C4.69375 13.1146 4.85 13.1833 5 13.275V8H8V10H6V15C6 15.55 5.80417 16.0208 5.4125 16.4125C5.02083 16.8042 4.55 17 4 17Z"
    />
    <path
        d="M11 17C10.45 17 9.97917 16.8042 9.5875 16.4125C9.19583 16.0208 9 15.55 9 15C9 14.45 9.19583 13.9792 9.5875 13.5875C9.97917 13.1958 10.45 13 11 13C11.1917 13 11.3688 13.0229 11.5313 13.0688C11.6938 13.1146 11.85 13.1833 12 13.275V8H15V10H13V15C13 15.55 12.8042 16.0208 12.4125 16.4125C12.0208 16.8042 11.55 17 11 17Z"
    />
    <path
        d="M18 17C17.45 17 16.9792 16.8042 16.5875 16.4125C16.1958 16.0208 16 15.55 16 15C16 14.45 16.1958 13.9792 16.5875 13.5875C16.9792 13.1958 17.45 13 18 13C18.1917 13 18.3688 13.0229 18.5313 13.0688C18.6938 13.1146 18.85 13.1833 19 13.275V8H22V10H20V15C20 15.55 19.8042 16.0208 19.4125 16.4125C19.0208 16.8042 18.55 17 18 17Z"
    />
</svg>