<svg version="1.1" id="Layer_1" xmlns="http://www.w3.org/2000/svg"
	xmlns:xlink="http://www.w3.org/1999/xlink" x="0px" y="0px"
	width="100%" viewBox="0 0 4001 4000" enable-background="new 0 0 4001 4000" xml:space="preserve">
<path fill="#49A1D9" opacity="1.000000" stroke="none" 
	d="
M2729.728516,2374.000000 
	C2729.728271,2491.982178 2729.728271,2608.964111 2729.728271,2727.209229 
	C2701.788574,2728.339600 2674.284912,2727.565186 2646.805664,2727.706055 
	C2618.806641,2727.849609 2590.806641,2727.737793 2562.806885,2727.737793 
	C2535.140381,2727.737793 2507.474121,2727.737793 2479.807617,2727.737793 
	C2451.807861,2727.737793 2423.808350,2727.737793 2395.808594,2727.737793 
	C2368.142334,2727.737793 2340.475830,2727.737793 2312.809570,2727.737793 
	C2284.809814,2727.737793 2256.810303,2727.737793 2228.810547,2727.737793 
	C2201.167236,2727.737793 2173.523926,2727.737793 2144.428223,2727.737793 
	C2144.131348,2740.476074 2144.318359,2752.677002 2144.284912,2764.865479 
	C2144.251953,2776.865479 2144.277588,2788.865234 2144.277588,2800.865234 
	C2144.277588,2813.198486 2144.277588,2825.531494 2144.277588,2837.864746 
	C2144.277588,2849.864746 2144.277588,2861.864502 2144.277588,2873.864502 
	C2144.277588,2886.156006 2144.277588,2898.447510 2144.277588,2910.541748 
	C2136.320557,2912.694580 2015.537354,2913.039062 2004.833252,2911.017090 
	C2004.833252,2849.962891 2004.833252,2788.801270 2004.833252,2726.428223 
	C2050.951416,2726.428223 2096.740479,2726.428223 2143.671387,2726.428223 
	C2143.671387,2679.770996 2143.671387,2634.303467 2143.671387,2587.804199 
	C2292.319580,2587.804199 2439.813232,2587.804199 2588.285400,2587.804199 
	C2589.645264,2565.974854 2588.755371,2545.107422 2588.916504,2524.273682 
	C2589.081299,2502.941895 2588.952881,2481.607666 2588.952881,2460.274658 
	C2588.952881,2439.274902 2588.952881,2418.275146 2588.952881,2397.275391 
	C2588.952881,2375.942383 2588.952881,2354.609131 2588.952881,2333.276123 
	C2588.952881,2312.276367 2588.952881,2291.276611 2588.952881,2270.276855 
	C2588.952881,2248.943848 2588.952881,2227.610596 2588.952881,2206.277588 
	C2588.952881,2185.356201 2588.952881,2164.434570 2588.952881,2142.895752 
	C2636.297119,2142.895752 2682.407227,2142.895752 2729.728516,2142.895752 
	C2729.728516,2219.891357 2729.728516,2296.445801 2729.728516,2374.000000 
z"/>
<path fill="#D83C96" opacity="1.000000" stroke="none" 
	d="
M2003.733521,2142.300293 
	C2003.872803,2145.290527 2004.133301,2148.281006 2004.133911,2151.271240 
	C2004.155396,2246.579102 2004.151611,2341.887207 2004.151733,2437.195068 
	C2004.151733,2440.172607 2004.151733,2443.149902 2004.151733,2447.381104 
	C1992.126465,2448.077637 1980.575684,2447.622314 1969.055176,2447.701660 
	C1957.392212,2447.782227 1945.728149,2447.719238 1934.064575,2447.719238 
	C1922.734253,2447.719238 1911.404053,2447.719238 1900.073730,2447.719238 
	C1888.504883,2447.719238 1876.935913,2447.719482 1864.348145,2447.719482 
	C1864.348145,2494.656738 1864.348145,2540.478760 1864.348145,2587.386963 
	C1715.866211,2587.386963 1568.424438,2587.386963 1419.932007,2587.386963 
	C1419.932007,2695.934570 1419.932007,2803.389648 1419.932007,2911.567871 
	C1373.068481,2911.567871 1327.249878,2911.567871 1281.346436,2911.567871 
	C1279.314087,2905.070557 1278.423096,2464.043213 1280.650391,2446.399902 
	C1474.531250,2446.399902 1668.578369,2446.399902 1863.692871,2446.399902 
	C1863.692871,2344.922852 1863.692871,2244.710449 1864.641235,2143.431152 
	C1911.637573,2142.343262 1957.685547,2142.321777 2003.733521,2142.300293 
z"/>
<path fill="#D83C95" opacity="1.000000" stroke="none" 
	d="
M1279.709106,1810.000000 
	C1279.708984,1632.410645 1279.708984,1455.821289 1279.708984,1277.965698 
	C1312.514648,1277.414307 1344.693726,1277.790161 1376.864014,1277.721680 
	C1409.190918,1277.652710 1441.518188,1277.706421 1473.845215,1277.706421 
	C1506.505615,1277.706421 1539.166016,1277.706421 1571.826416,1277.706421 
	C1604.153442,1277.706421 1636.480591,1277.706421 1668.807617,1277.706421 
	C1701.134766,1277.706421 1733.461792,1277.706421 1765.788940,1277.706421 
	C1798.012451,1277.706421 1830.235962,1277.706421 1863.372559,1277.706421 
	C1863.372559,1215.639893 1863.372559,1154.782837 1863.372559,1094.208740 
	C1871.154419,1091.887329 1985.871338,1091.127197 2002.575439,1093.015503 
	C2004.552612,1100.208740 2004.979858,1265.817749 2002.859863,1278.278320 
	C1957.264038,1278.278320 1911.459839,1278.278320 1864.395508,1278.278320 
	C1864.395508,1325.140015 1864.395508,1370.904785 1864.395508,1417.733887 
	C1715.679199,1417.733887 1568.235107,1417.733887 1419.711304,1417.733887 
	C1419.711304,1566.257568 1419.711304,1713.702148 1419.711304,1861.717529 
	C1372.801025,1861.717529 1326.972778,1861.717529 1279.709229,1861.717529 
	C1279.709229,1844.718872 1279.709229,1827.859497 1279.709106,1810.000000 
z"/>
<path fill="#49A1D9" opacity="1.000000" stroke="none" 
	d="
M2143.661377,1557.608765 
	C2143.661377,1511.396240 2143.661377,1465.183716 2143.661377,1417.836670 
	C2292.618164,1417.836670 2440.365967,1417.836670 2589.388672,1417.836670 
	C2589.388672,1308.955322 2589.388672,1201.206299 2589.388672,1092.865479 
	C2636.498535,1092.865479 2682.331787,1092.865479 2728.131836,1092.865479 
	C2730.115479,1100.090576 2730.582275,1545.677124 2728.447021,1558.279419 
	C2724.465088,1558.279419 2720.234619,1558.279419 2716.004150,1558.279419 
	C2530.072510,1558.279419 2344.141113,1558.278809 2158.209473,1558.283203 
	C2154.211426,1558.283203 2150.213623,1558.339233 2145.113281,1558.177490 
	C2144.010986,1557.985962 2143.661377,1557.608765 2143.661377,1557.608765 
z"/>
<path fill="#D83C95" opacity="1.000000" stroke="none" 
	d="
M2322.000000,832.489746 
	C2215.822266,832.489990 2110.644287,832.489990 2004.342651,832.489990 
	C2004.342651,879.474121 2004.342651,925.250671 2004.342651,971.654175 
	C1957.122437,971.654175 1911.027832,971.654175 1864.319824,971.654175 
	C1864.319824,878.860596 1864.319824,786.389282 1864.319824,693.912170 
	C1871.125000,691.904663 2432.799316,691.110901 2448.991211,693.183899 
	C2448.991211,739.153625 2448.991211,785.219360 2448.991211,832.489502 
	C2406.741943,832.489502 2364.871094,832.489502 2322.000000,832.489746 
z"/>
<path fill="#49A1D9" opacity="1.000000" stroke="none" 
	d="
M2004.274170,3070.001221 
	C2004.274170,3057.354248 2004.274170,3045.706787 2004.274170,3034.232910 
	C2011.493530,3031.842041 2128.393555,3031.109619 2143.587402,3033.300049 
	C2143.587402,3125.659424 2143.587402,3218.122070 2143.587402,3310.628174 
	C2136.773438,3312.700439 1572.649170,3313.244141 1560.280273,3311.049316 
	C1560.280273,3265.312500 1560.280273,3219.473633 1560.280273,3172.143311 
	C1597.261475,3172.111328 1634.105347,3172.132812 1670.948853,3172.128906 
	C1707.933350,3172.125244 1744.917725,3172.128174 1781.902222,3172.128174 
	C1818.553467,3172.128174 1855.204712,3172.128174 1891.855957,3172.128174 
	C1928.797241,3172.128174 1965.738525,3172.128174 2001.959839,3172.128174 
	C2002.916992,3171.216309 2003.186768,3171.009033 2003.391235,3170.750244 
	C2003.586304,3170.503418 2003.849609,3170.203369 2003.850952,3169.925537 
	C2004.006104,3136.950684 2004.139404,3103.975830 2004.274170,3070.001221 
z"/>
<path fill="#49A1D9" opacity="1.000000" stroke="none" 
	d="
M2004.042725,2002.030029 
	C2004.119507,1998.038574 2004.262939,1994.046997 2004.263306,1990.055542 
	C2004.274658,1850.239868 2004.272827,1710.424194 2004.272827,1570.608521 
	C2004.272827,1566.699829 2004.272827,1562.791016 2004.272827,1557.625000 
	C2050.857422,1557.625000 2096.355713,1557.625000 2142.757812,1557.616943 
	C2143.661377,1557.608765 2144.010986,1557.985962 2144.200684,1558.164551 
	C2144.392334,1659.032715 2144.394531,1759.722290 2144.400146,1862.250488 
	C2144.371094,1910.025879 2144.338623,1955.963013 2144.306152,2001.900146 
	C2124.377441,2002.026855 2104.448975,2002.234375 2084.520264,2002.260254 
	C2058.271240,2002.294434 2032.022095,2002.185791 2004.871094,2002.052002 
	C2003.968994,2001.965576 2004.042603,2002.030029 2004.042725,2002.030029 
z"/>
<path fill="#49A1D9" opacity="1.000000" stroke="none" 
	d="
M2003.888672,2141.349609 
	C1957.685547,2142.321777 1911.637573,2142.343262 1864.640015,2142.539062 
	C1859.702881,2142.569092 1855.715454,2142.300049 1851.727905,2142.299072 
	C1758.814087,2142.275391 1665.900269,2142.280762 1572.986450,2142.280762 
	C1569.046753,2142.280762 1565.107056,2142.280518 1560.448730,2142.280518 
	C1560.448730,2095.455078 1560.448730,2049.420166 1560.448730,2002.238892 
	C1707.976929,2002.238892 1855.076538,2002.238892 2003.109375,2002.134521 
	C2004.042603,2002.030029 2003.968994,2001.965576 2003.933594,2001.930176 
	C2003.946899,2048.062988 2003.995361,2094.230957 2003.888672,2141.349609 
z"/>
<path fill="#D83C96" opacity="1.000000" stroke="none" 
	d="
M2145.210693,2002.040283 
	C2144.338623,1955.963013 2144.371094,1910.025879 2144.571533,1863.190918 
	C2245.921387,1862.292847 2347.103271,1862.292847 2448.999512,1862.292847 
	C2448.999512,1909.141235 2448.999512,1955.183594 2448.999512,2002.180664 
	C2347.746582,2002.180664 2246.930908,2002.180664 2145.210693,2002.040283 
z"/>
</svg>