<svg xmlns="http://www.w3.org/2000/svg" xmlns:xlink="http://www.w3.org/1999/xlink"><symbol viewBox="0 -960 960 960" id="artist"><path d="M740-560h140v80h-80v220q0 42-29 71t-71 29q-42 0-71-29t-29-71q0-42 29-71t71-29q8 0 18 1.5t22 6.5v-208ZM120-160v-112q0-35 17.5-63t46.5-43q62-31 126-46.5T440-440q42 0 83.5 6.5T607-414q-20 12-36 29t-28 37q-26-6-51.5-9t-51.5-3q-57 0-112 14t-108 40q-9 5-14.5 14t-5.5 20v32h321q2 20 9.5 40t20.5 40H120Zm320-320q-66 0-113-47t-47-113q0-66 47-113t113-47q66 0 113 47t47 113q0 66-47 113t-113 47Zm0-80q33 0 56.5-23.5T520-640q0-33-23.5-56.5T440-720q-33 0-56.5 23.5T360-640q0 33 23.5 56.5T440-560Zm0-80Zm0 400Z"/></symbol><symbol viewBox="0 -960 960 960" id="groups"><path d="M0-240v-63q0-43 44-70t116-27q13 0 25 .5t23 2.5q-14 21-21 44t-7 48v65H0Zm240 0v-65q0-32 17.5-58.5T307-410q32-20 76.5-30t96.5-10q53 0 97.5 10t76.5 30q32 20 49 46.5t17 58.5v65H240Zm540 0v-65q0-26-6.5-49T754-397q11-2 22.5-2.5t23.5-.5q72 0 116 26.5t44 70.5v63H780Zm-455-80h311q-10-20-55.5-35T480-370q-55 0-100.5 15T325-320ZM160-440q-33 0-56.5-23.5T80-520q0-34 23.5-57t56.5-23q34 0 57 23t23 57q0 33-23 56.5T160-440Zm640 0q-33 0-56.5-23.5T720-520q0-34 23.5-57t56.5-23q34 0 57 23t23 57q0 33-23 56.5T800-440Zm-320-40q-50 0-85-35t-35-85q0-51 35-85.5t85-34.5q51 0 85.5 34.5T600-600q0 50-34.5 85T480-480Zm0-80q17 0 28.5-11.5T520-600q0-17-11.5-28.5T480-640q-17 0-28.5 11.5T440-600q0 17 11.5 28.5T480-560Zm1 240Zm-1-280Z"/></symbol><symbol viewBox="0 -960 960 960" id="note"><path d="M400-120q-66 0-113-47t-47-113q0-66 47-113t113-47q23 0 42.5 5.5T480-418v-422h240v160H560v400q0 66-47 113t-113 47Z"/></symbol><symbol viewBox="0 0 24 24" id="notes"><path d="M4 17C3.45 17 2.97917 16.8042 2.5875 16.4125C2.19583 16.0208 2 15.55 2 15C2 14.45 2.19583 13.9792 2.5875 13.5875C2.97917 13.1958 3.45 13 4 13C4.19167 13 4.36875 13.0229 4.53125 13.0688C4.69375 13.1146 4.85 13.1833 5 13.275V8H8V10H6V15C6 15.55 5.80417 16.0208 5.4125 16.4125C5.02083 16.8042 4.55 17 4 17Z"/><path d="M11 17C10.45 17 9.97917 16.8042 9.5875 16.4125C9.19583 16.0208 9 15.55 9 15C9 14.45 9.19583 13.9792 9.5875 13.5875C9.97917 13.1958 10.45 13 11 13C11.1917 13 11.3688 13.0229 11.5313 13.0688C11.6938 13.1146 11.85 13.1833 12 13.275V8H15V10H13V15C13 15.55 12.8042 16.0208 12.4125 16.4125C12.0208 16.8042 11.55 17 11 17Z"/><path d="M18 17C17.45 17 16.9792 16.8042 16.5875 16.4125C16.1958 16.0208 16 15.55 16 15C16 14.45 16.1958 13.9792 16.5875 13.5875C16.9792 13.1958 17.45 13 18 13C18.1917 13 18.3688 13.0229 18.5313 13.0688C18.6938 13.1146 18.85 13.1833 19 13.275V8H22V10H20V15C20 15.55 19.8042 16.0208 19.4125 16.4125C19.0208 16.8042 18.55 17 18 17Z"/></symbol><symbol viewBox="0 -960 960 960" id="person"><path d="M480-480q-66 0-113-47t-47-113q0-66 47-113t113-47q66 0 113 47t47 113q0 66-47 113t-113 47ZM160-160v-112q0-34 17.5-62.5T224-378q62-31 126-46.5T480-440q66 0 130 15.5T736-378q29 15 46.5 43.5T800-272v112H160Zm80-80h480v-32q0-11-5.5-20T700-306q-54-27-109-40.5T480-360q-56 0-111 13.5T260-306q-9 5-14.5 14t-5.5 20v32Zm240-320q33 0 56.5-23.5T560-640q0-33-23.5-56.5T480-720q-33 0-56.5 23.5T400-640q0 33 23.5 56.5T480-560Zm0-80Zm0 400Z"/></symbol><symbol viewBox="0 -960 960 960" id="star"><path d="m354-247 126-76 126 77-33-144 111-96-146-13-58-136-58 135-146 13 111 97-33 143ZM233-80l65-281L80-550l288-25 112-265 112 265 288 25-218 189 65 281-247-149L233-80Zm247-350Z"/></symbol><symbol viewBox="0 -960 960 960" id="star_filled"><path d="m233-80 65-281L80-550l288-25 112-265 112 265 288 25-218 189 65 281-247-149L233-80Z"/></symbol><symbol viewBox="0 -960 960 960" id="trophy"><path d="M280-120v-80h160v-124q-49-11-87.5-41.5T296-442q-75-9-125.5-65.5T120-640v-40q0-33 23.5-56.5T200-760h80v-80h400v80h80q33 0 56.5 23.5T840-680v40q0 76-50.5 132.5T664-442q-18 46-56.5 76.5T520-324v124h160v80H280Zm0-408v-152h-80v40q0 38 22 68.5t58 43.5Zm200 128q50 0 85-35t35-85v-240H360v240q0 50 35 85t85 35Zm200-128q36-13 58-43.5t22-68.5v-40h-80v152Zm-200-52Z"/></symbol></svg>